<svg xmlns="http://www.w3.org/2000/svg" width="101" height="112" fill="none" viewBox="0 0 101 112">
  <path fill="#011C37" d="M50.345 39.461a1.52 1.52 0 01-1.121-.511 1.899 1.899 0 01-.481-1.243v-.784a1.94 1.94 0 01.478-1.257 1.557 1.557 0 011.124-.535c.42.01.819.203 1.112.538.293.335.457.785.457 1.254v.784c0 .465-.165.911-.46 1.24a1.49 1.49 0 01-1.109.514zm-7.913 2.166a1.435 1.435 0 01-.71-.186 1.626 1.626 0 01-.558-.524l-4.741-7.056a1.951 1.951 0 01-.31-1.32c.056-.468.275-.893.61-1.181a1.504 1.504 0 011.186-.315c.416.07.793.316 1.051.688l3.339 5.078 9.882-16.502c.115-.196.263-.364.437-.495.173-.13.368-.221.574-.266.205-.046.416-.044.621.003.205.048.4.14.572.273.347.265.586.672.668 1.133.08.46-.003.939-.234 1.331L43.734 40.955c-.132.242-.319.441-.541.579a1.348 1.348 0 01-.727.205l-.034-.112zm25.976 16.8H32.85a1.425 1.425 0 01-.61-.123 1.563 1.563 0 01-.52-.378 1.775 1.775 0 01-.35-.574 1.935 1.935 0 01-.122-.68c0-.475.169-.931.47-1.267.3-.336.707-.525 1.132-.525h35.558c.425 0 .832.189 1.133.525.3.336.47.792.47 1.267 0 .234-.042.465-.123.68-.081.216-.2.41-.35.574-.148.164-.325.292-.52.378a1.425 1.425 0 01-.61.123zM32.95 69.029h35.591-35.59zm35.591 1.792h-35.59c-.426 0-.833-.189-1.134-.525-.3-.336-.47-.791-.47-1.267 0-.233.043-.465.123-.68.081-.215.2-.41.35-.574.148-.163.325-.292.52-.378.194-.086.402-.127.61-.122h35.591c.416 0 .815.184 1.11.514.294.329.46.775.46 1.24 0 .47-.165.92-.458 1.254a1.527 1.527 0 01-1.112.538zm-35.49 10.603h35.59-35.59zm35.59 1.605h-35.59a1.49 1.49 0 01-1.11-.514 1.866 1.866 0 01-.46-1.24c0-.466.166-.912.46-1.241a1.49 1.49 0 011.11-.514h35.59c.416 0 .816.185 1.11.514.294.329.46.775.46 1.24 0 .466-.166.912-.46 1.241a1.49 1.49 0 01-1.11.514zM50.345 46.928H32.95a1.422 1.422 0 01-.61-.123 1.566 1.566 0 01-.52-.377 1.78 1.78 0 01-.35-.575 1.935 1.935 0 01-.122-.68v-19.45c0-.476.169-.931.47-1.267.3-.337.707-.525 1.132-.525h8.681c.422.01.825.201 1.124.535.299.334.47.784.479 1.257a1.899 1.899 0 01-.481 1.243 1.52 1.52 0 01-1.122.511H34.52v15.904h14.223v-5.674a1.94 1.94 0 01.478-1.257 1.557 1.557 0 011.124-.535c.42.01.819.203 1.112.538.293.335.457.785.457 1.254v7.466c0 .23-.04.459-.12.672a1.783 1.783 0 01-.34.57 1.571 1.571 0 01-.508.38c-.19.088-.395.133-.6.133zM79.592 99.12H21.666a1.49 1.49 0 01-1.11-.514 1.866 1.866 0 01-.46-1.24V14.634c0-.466.166-.912.46-1.241a1.49 1.49 0 011.11-.514h57.926c.416 0 .816.185 1.11.514.294.329.46.775.46 1.24v82.731c0 .466-.166.912-.46 1.241a1.49 1.49 0 01-1.11.514zm-56.357-3.733h54.788V16.389H23.235v78.998zm9.615-38.715h35.558H32.85z"/>
</svg>
