<svg width="16" height="14" fill="none" xmlns="http://www.w3.org/2000/svg"><path fill-rule="evenodd" clip-rule="evenodd" d="M1.696 3.015c.17-.21.396-.382.658-.5.261-.119.551-.18.846-.182h9.6c.624 0 1.169.275 1.504.682.229.279.363.622.363.99v5.99c0 .903-.814 1.672-1.867 1.672H3.2c-1.053 0-1.867-.769-1.867-1.672v-5.99c0-.368.134-.711.363-.99Zm1.593.485 4.218 4.063c.062.06.138.108.223.141a.749.749 0 0 0 .54 0 .671.671 0 0 0 .223-.14L12.711 3.5H3.29Zm10.044 1.137L9.48 8.347a2.007 2.007 0 0 1-.67.424 2.246 2.246 0 0 1-1.62 0 2.014 2.014 0 0 1-.67-.423L2.667 4.637v5.358c0 .3.26.506.533.506h9.6c.272 0 .533-.206.533-.506V4.637Z" fill="#fff"/></svg>