<svg width="14" height="13" fill="none" xmlns="http://www.w3.org/2000/svg"><path fill-rule="evenodd" clip-rule="evenodd" d="M5.37 8.013C6.724 9.27 7.98 9.97 8.914 10.358c.816.34 1.78.073 2.53-.624l.172-.16-2.063-1.219c-.392.53-1.133.842-1.874.553a6.273 6.273 0 0 1-1.966-1.212A5.743 5.743 0 0 1 4.408 5.87c-.313-.687.022-1.376.595-1.74L3.69 2.215l-.172.16c-.75.696-1.037 1.59-.672 2.349.419.867 1.172 2.034 2.525 3.29Zm3.067 3.333c-1.06-.44-2.434-1.214-3.891-2.567-1.457-1.352-2.29-2.63-2.765-3.613-.627-1.3-.054-2.66.912-3.558l.172-.16c.123-.114.273-.202.438-.256a1.25 1.25 0 0 1 1.003.102c.149.086.274.202.368.339l1.651 2.41a.518.518 0 0 1 .07.435.53.53 0 0 1-.112.2.578.578 0 0 1-.189.14l-.37.172c-.251.117-.303.323-.241.459a4.64 4.64 0 0 0 1.054 1.48 5.098 5.098 0 0 0 1.595.98c.147.058.369.01.495-.225l.185-.342a.55.55 0 0 1 .15-.176.6.6 0 0 1 .457-.118c.08.011.158.038.227.079l2.596 1.533c.147.087.272.204.364.342a1.011 1.011 0 0 1 .11.932 1.076 1.076 0 0 1-.276.406l-.172.16c-.967.898-2.43 1.43-3.831.846Z" fill="#fff"/></svg>