<svg width="110" height="94" fill="none" xmlns="http://www.w3.org/2000/svg"><path d="M54.688 33.12c-.46 0-.902-.155-1.232-.43a1.41 1.41 0 0 1-.528-1.043v-.658c.01-.397.198-.775.526-1.055.328-.28.77-.441 1.234-.45.46.009.899.17 1.221.452a1.4 1.4 0 0 1 .503 1.053v.658c0 .39-.182.765-.505 1.04a1.882 1.882 0 0 1-1.219.432Zm-8.69 1.817a1.969 1.969 0 0 1-.78-.156 1.689 1.689 0 0 1-.613-.44l-5.207-5.922a1.347 1.347 0 0 1-.34-1.108c.061-.393.302-.75.67-.991a2.038 2.038 0 0 1 1.302-.265c.458.059.871.266 1.155.578l3.667 4.262 10.853-13.85c.126-.164.289-.305.48-.415.19-.11.404-.186.63-.224.225-.038.457-.037.682.003a1.9 1.9 0 0 1 .628.229c.38.222.644.564.733.95.09.387-.003.789-.256 1.118L47.428 34.373c-.146.203-.35.37-.595.486a1.85 1.85 0 0 1-.798.172l-.037-.094Zm28.527 14.1h-39.05a1.982 1.982 0 0 1-.67-.103 1.775 1.775 0 0 1-.572-.317 1.485 1.485 0 0 1-.383-.482 1.29 1.29 0 0 1-.135-.571 1.4 1.4 0 0 1 .515-1.063c.33-.283.778-.441 1.245-.441h39.05c.467 0 .914.158 1.244.44.33.282.516.665.516 1.064 0 .196-.046.39-.135.57a1.487 1.487 0 0 1-.383.483 1.776 1.776 0 0 1-.571.317 1.984 1.984 0 0 1-.671.103Zm-38.94 8.898h39.087-39.087Zm39.087 1.504H35.585c-.467 0-.915-.158-1.245-.44a1.403 1.403 0 0 1-.515-1.064c0-.196.046-.39.134-.57a1.5 1.5 0 0 1 .384-.482 1.75 1.75 0 0 1 .571-.317c.213-.073.442-.108.67-.103h39.088c.457 0 .895.155 1.218.43.323.277.505.652.505 1.042a1.4 1.4 0 0 1-.502 1.053 1.917 1.917 0 0 1-1.221.451Zm-38.977 8.899h39.087-39.087Zm39.087 1.347H35.695c-.457 0-.895-.155-1.219-.431a1.371 1.371 0 0 1-.504-1.041c0-.391.181-.766.504-1.042a1.883 1.883 0 0 1 1.219-.431h39.087c.457 0 .895.155 1.218.431.323.276.505.651.505 1.042 0 .39-.182.765-.505 1.04a1.883 1.883 0 0 1-1.218.432Zm-20.094-30.3H35.585c-.23.005-.458-.03-.67-.102a1.777 1.777 0 0 1-.572-.317 1.485 1.485 0 0 1-.384-.482 1.29 1.29 0 0 1-.134-.57V21.588c0-.4.185-.782.515-1.064.33-.282.778-.44 1.245-.44h9.533c.464.008.906.169 1.234.449.329.28.517.658.526 1.055a1.41 1.41 0 0 1-.528 1.043c-.329.275-.771.43-1.232.43h-7.81v13.347h15.62v-4.762c.01-.397.198-.775.526-1.055.328-.28.77-.441 1.234-.45.46.009.899.17 1.221.452a1.4 1.4 0 0 1 .503 1.053v6.266c0 .194-.045.385-.132.564a1.48 1.48 0 0 1-.373.478c-.16.136-.35.245-.56.319a1.97 1.97 0 0 1-.659.112Zm32.12 43.805H23.192c-.457 0-.896-.155-1.219-.431-.323-.277-.505-.651-.505-1.042V12.283c0-.391.182-.766.505-1.042a1.883 1.883 0 0 1 1.219-.431h63.616c.457 0 .896.155 1.219.431.323.276.505.651.505 1.042v69.434c0 .39-.182.765-.505 1.042a1.882 1.882 0 0 1-1.219.43Zm-61.893-3.133h60.17V13.755h-60.17v66.302Zm10.56-32.493h39.05-39.05Z" fill="#fff"/></svg>